<svg xmlns="http://www.w3.org/2000/svg" width="860" height="300" viewBox="0 0 860 300" font-family="Segoe UI, Arial, sans-serif" role="img" aria-label="ClawHub downloads trend: 3, 6, 19, 20, 22, 23, 24, 26, 26, 27, 27, 27, 27, 27, 28, 31, 32, 34, 34, 34, 34, 34, 36, 37, 39, 41, 41, 44, 44, 50, 54, 57, 62, 63, 65, 66, 71">
<defs>
<linearGradient id="grad" x1="0" y1="0" x2="0" y2="1">
<stop offset="0%" stop-color="#16a34a" stop-opacity="0.30"/>
<stop offset="100%" stop-color="#16a34a" stop-opacity="0"/>
</linearGradient>
</defs>
<rect width="860" height="300" fill="#ffffff" rx="12"/>
<line x1="58" y1="256.0" x2="836" y2="256.0" stroke="#e5e7eb" stroke-width="1"/><text x="48" y="260.0" text-anchor="end" font-size="12" fill="#6b7280">0</text><line x1="58" y1="214.4" x2="836" y2="214.4" stroke="#e5e7eb" stroke-width="1"/><text x="48" y="218.4" text-anchor="end" font-size="12" fill="#6b7280">20</text><line x1="58" y1="172.8" x2="836" y2="172.8" stroke="#e5e7eb" stroke-width="1"/><text x="48" y="176.8" text-anchor="end" font-size="12" fill="#6b7280">40</text><line x1="58" y1="131.2" x2="836" y2="131.2" stroke="#e5e7eb" stroke-width="1"/><text x="48" y="135.2" text-anchor="end" font-size="12" fill="#6b7280">60</text><line x1="58" y1="89.6" x2="836" y2="89.6" stroke="#e5e7eb" stroke-width="1"/><text x="48" y="93.6" text-anchor="end" font-size="12" fill="#6b7280">80</text><line x1="58" y1="48.0" x2="836" y2="48.0" stroke="#e5e7eb" stroke-width="1"/><text x="48" y="52.0" text-anchor="end" font-size="12" fill="#6b7280">100</text>
<path d="M 58.0,249.8 79.6,243.5 101.2,216.5 122.8,214.4 144.4,210.2 166.1,208.2 187.7,206.1 209.3,201.9 230.9,201.9 252.5,199.8 274.1,199.8 295.7,199.8 317.3,199.8 338.9,199.8 360.6,197.8 382.2,191.5 403.8,189.4 425.4,185.3 447.0,185.3 468.6,185.3 490.2,185.3 511.8,185.3 533.4,181.1 555.1,179.0 576.7,174.9 598.3,170.7 619.9,170.7 641.5,164.5 663.1,164.5 684.7,152.0 706.3,143.7 727.9,137.4 749.6,127.0 771.2,125.0 792.8,120.8 814.4,118.7 836.0,108.3 L 836.0,256.0 L 58.0,256.0 Z" fill="url(#grad)"/>
<polyline points="58.0,249.8 79.6,243.5 101.2,216.5 122.8,214.4 144.4,210.2 166.1,208.2 187.7,206.1 209.3,201.9 230.9,201.9 252.5,199.8 274.1,199.8 295.7,199.8 317.3,199.8 338.9,199.8 360.6,197.8 382.2,191.5 403.8,189.4 425.4,185.3 447.0,185.3 468.6,185.3 490.2,185.3 511.8,185.3 533.4,181.1 555.1,179.0 576.7,174.9 598.3,170.7 619.9,170.7 641.5,164.5 663.1,164.5 684.7,152.0 706.3,143.7 727.9,137.4 749.6,127.0 771.2,125.0 792.8,120.8 814.4,118.7 836.0,108.3" fill="none" stroke="#16a34a" stroke-width="3" stroke-linecap="round" stroke-linejoin="round"/>
<circle cx="58.0" cy="249.8" r="3.5" fill="#16a34a" stroke="#ffffff" stroke-width="1.5"/><circle cx="79.6" cy="243.5" r="3.5" fill="#16a34a" stroke="#ffffff" stroke-width="1.5"/><circle cx="101.2" cy="216.5" r="3.5" fill="#16a34a" stroke="#ffffff" stroke-width="1.5"/><circle cx="122.8" cy="214.4" r="3.5" fill="#16a34a" stroke="#ffffff" stroke-width="1.5"/><circle cx="144.4" cy="210.2" r="3.5" fill="#16a34a" stroke="#ffffff" stroke-width="1.5"/><circle cx="166.1" cy="208.2" r="3.5" fill="#16a34a" stroke="#ffffff" stroke-width="1.5"/><circle cx="187.7" cy="206.1" r="3.5" fill="#16a34a" stroke="#ffffff" stroke-width="1.5"/><circle cx="209.3" cy="201.9" r="3.5" fill="#16a34a" stroke="#ffffff" stroke-width="1.5"/><circle cx="230.9" cy="201.9" r="3.5" fill="#16a34a" stroke="#ffffff" stroke-width="1.5"/><circle cx="252.5" cy="199.8" r="3.5" fill="#16a34a" stroke="#ffffff" stroke-width="1.5"/><circle cx="274.1" cy="199.8" r="3.5" fill="#16a34a" stroke="#ffffff" stroke-width="1.5"/><circle cx="295.7" cy="199.8" r="3.5" fill="#16a34a" stroke="#ffffff" stroke-width="1.5"/><circle cx="317.3" cy="199.8" r="3.5" fill="#16a34a" stroke="#ffffff" stroke-width="1.5"/><circle cx="338.9" cy="199.8" r="3.5" fill="#16a34a" stroke="#ffffff" stroke-width="1.5"/><circle cx="360.6" cy="197.8" r="3.5" fill="#16a34a" stroke="#ffffff" stroke-width="1.5"/><circle cx="382.2" cy="191.5" r="3.5" fill="#16a34a" stroke="#ffffff" stroke-width="1.5"/><circle cx="403.8" cy="189.4" r="3.5" fill="#16a34a" stroke="#ffffff" stroke-width="1.5"/><circle cx="425.4" cy="185.3" r="3.5" fill="#16a34a" stroke="#ffffff" stroke-width="1.5"/><circle cx="447.0" cy="185.3" r="3.5" fill="#16a34a" stroke="#ffffff" stroke-width="1.5"/><circle cx="468.6" cy="185.3" r="3.5" fill="#16a34a" stroke="#ffffff" stroke-width="1.5"/><circle cx="490.2" cy="185.3" r="3.5" fill="#16a34a" stroke="#ffffff" stroke-width="1.5"/><circle cx="511.8" cy="185.3" r="3.5" fill="#16a34a" stroke="#ffffff" stroke-width="1.5"/><circle cx="533.4" cy="181.1" r="3.5" fill="#16a34a" stroke="#ffffff" stroke-width="1.5"/><circle cx="555.1" cy="179.0" r="3.5" fill="#16a34a" stroke="#ffffff" stroke-width="1.5"/><circle cx="576.7" cy="174.9" r="3.5" fill="#16a34a" stroke="#ffffff" stroke-width="1.5"/><circle cx="598.3" cy="170.7" r="3.5" fill="#16a34a" stroke="#ffffff" stroke-width="1.5"/><circle cx="619.9" cy="170.7" r="3.5" fill="#16a34a" stroke="#ffffff" stroke-width="1.5"/><circle cx="641.5" cy="164.5" r="3.5" fill="#16a34a" stroke="#ffffff" stroke-width="1.5"/><circle cx="663.1" cy="164.5" r="3.5" fill="#16a34a" stroke="#ffffff" stroke-width="1.5"/><circle cx="684.7" cy="152.0" r="3.5" fill="#16a34a" stroke="#ffffff" stroke-width="1.5"/><circle cx="706.3" cy="143.7" r="3.5" fill="#16a34a" stroke="#ffffff" stroke-width="1.5"/><circle cx="727.9" cy="137.4" r="3.5" fill="#16a34a" stroke="#ffffff" stroke-width="1.5"/><circle cx="749.6" cy="127.0" r="3.5" fill="#16a34a" stroke="#ffffff" stroke-width="1.5"/><circle cx="771.2" cy="125.0" r="3.5" fill="#16a34a" stroke="#ffffff" stroke-width="1.5"/><circle cx="792.8" cy="120.8" r="3.5" fill="#16a34a" stroke="#ffffff" stroke-width="1.5"/><circle cx="814.4" cy="118.7" r="3.5" fill="#16a34a" stroke="#ffffff" stroke-width="1.5"/><circle cx="836.0" cy="108.3" r="5" fill="#166534" stroke="#ffffff" stroke-width="1.5"/><text x="836.0" y="96.3" text-anchor="middle" font-size="14" font-weight="bold" fill="#166534">71</text>
<text x="58.0" y="276" text-anchor="middle" font-size="12" fill="#6b7280">08-04</text><text x="166.1" y="276" text-anchor="middle" font-size="12" fill="#6b7280">08-15</text><text x="274.1" y="276" text-anchor="middle" font-size="12" fill="#6b7280">08-20</text><text x="382.2" y="276" text-anchor="middle" font-size="12" fill="#6b7280">08-25</text><text x="490.2" y="276" text-anchor="middle" font-size="12" fill="#6b7280">08-31</text><text x="598.3" y="276" text-anchor="middle" font-size="12" fill="#6b7280">09-05</text><text x="706.3" y="276" text-anchor="middle" font-size="12" fill="#6b7280">09-10</text><text x="814.4" y="276" text-anchor="middle" font-size="12" fill="#6b7280">09-15</text><text x="836.0" y="276" text-anchor="middle" font-size="12" fill="#6b7280">09-16</text>
<text x="58" y="28" font-size="17" font-weight="bold" fill="#111827">ClawHub Downloads Trend</text>
<text x="836" y="28" text-anchor="end" font-size="12" fill="#6b7280">@tqsy114514/baidu-search-plugin · updated 2026-09-15</text>
</svg>
