<svg xmlns="http://www.w3.org/2000/svg" width="860" height="300" viewBox="0 0 860 300" font-family="Segoe UI, Arial, sans-serif" role="img" aria-label="ClawHub downloads trend: 3, 6, 19, 20, 22, 23, 24, 26, 26, 27, 27, 27, 27, 27, 28, 31, 32, 34, 34, 34, 34, 34, 36, 37, 39, 41, 41, 44, 44, 50, 54, 57, 62, 63, 65, 66, 71, 73">
<defs>
<linearGradient id="grad" x1="0" y1="0" x2="0" y2="1">
<stop offset="0%" stop-color="#16a34a" stop-opacity="0.30"/>
<stop offset="100%" stop-color="#16a34a" stop-opacity="0"/>
</linearGradient>
</defs>
<rect width="860" height="300" fill="#ffffff" rx="12"/>
<line x1="58" y1="256.0" x2="836" y2="256.0" stroke="#e5e7eb" stroke-width="1"/><text x="48" y="260.0" text-anchor="end" font-size="12" fill="#6b7280">0</text><line x1="58" y1="214.4" x2="836" y2="214.4" stroke="#e5e7eb" stroke-width="1"/><text x="48" y="218.4" text-anchor="end" font-size="12" fill="#6b7280">20</text><line x1="58" y1="172.8" x2="836" y2="172.8" stroke="#e5e7eb" stroke-width="1"/><text x="48" y="176.8" text-anchor="end" font-size="12" fill="#6b7280">40</text><line x1="58" y1="131.2" x2="836" y2="131.2" stroke="#e5e7eb" stroke-width="1"/><text x="48" y="135.2" text-anchor="end" font-size="12" fill="#6b7280">60</text><line x1="58" y1="89.6" x2="836" y2="89.6" stroke="#e5e7eb" stroke-width="1"/><text x="48" y="93.6" text-anchor="end" font-size="12" fill="#6b7280">80</text><line x1="58" y1="48.0" x2="836" y2="48.0" stroke="#e5e7eb" stroke-width="1"/><text x="48" y="52.0" text-anchor="end" font-size="12" fill="#6b7280">100</text>
<path d="M 58.0,249.8 79.0,243.5 100.1,216.5 121.1,214.4 142.1,210.2 163.1,208.2 184.2,206.1 205.2,201.9 226.2,201.9 247.2,199.8 268.3,199.8 289.3,199.8 310.3,199.8 331.4,199.8 352.4,197.8 373.4,191.5 394.4,189.4 415.5,185.3 436.5,185.3 457.5,185.3 478.5,185.3 499.6,185.3 520.6,181.1 541.6,179.0 562.6,174.9 583.7,170.7 604.7,170.7 625.7,164.5 646.8,164.5 667.8,152.0 688.8,143.7 709.8,137.4 730.9,127.0 751.9,125.0 772.9,120.8 793.9,118.7 815.0,108.3 836.0,104.2 L 836.0,256.0 L 58.0,256.0 Z" fill="url(#grad)"/>
<polyline points="58.0,249.8 79.0,243.5 100.1,216.5 121.1,214.4 142.1,210.2 163.1,208.2 184.2,206.1 205.2,201.9 226.2,201.9 247.2,199.8 268.3,199.8 289.3,199.8 310.3,199.8 331.4,199.8 352.4,197.8 373.4,191.5 394.4,189.4 415.5,185.3 436.5,185.3 457.5,185.3 478.5,185.3 499.6,185.3 520.6,181.1 541.6,179.0 562.6,174.9 583.7,170.7 604.7,170.7 625.7,164.5 646.8,164.5 667.8,152.0 688.8,143.7 709.8,137.4 730.9,127.0 751.9,125.0 772.9,120.8 793.9,118.7 815.0,108.3 836.0,104.2" fill="none" stroke="#16a34a" stroke-width="3" stroke-linecap="round" stroke-linejoin="round"/>
<circle cx="58.0" cy="249.8" r="3.5" fill="#16a34a" stroke="#ffffff" stroke-width="1.5"/><circle cx="79.0" cy="243.5" r="3.5" fill="#16a34a" stroke="#ffffff" stroke-width="1.5"/><circle cx="100.1" cy="216.5" r="3.5" fill="#16a34a" stroke="#ffffff" stroke-width="1.5"/><circle cx="121.1" cy="214.4" r="3.5" fill="#16a34a" stroke="#ffffff" stroke-width="1.5"/><circle cx="142.1" cy="210.2" r="3.5" fill="#16a34a" stroke="#ffffff" stroke-width="1.5"/><circle cx="163.1" cy="208.2" r="3.5" fill="#16a34a" stroke="#ffffff" stroke-width="1.5"/><circle cx="184.2" cy="206.1" r="3.5" fill="#16a34a" stroke="#ffffff" stroke-width="1.5"/><circle cx="205.2" cy="201.9" r="3.5" fill="#16a34a" stroke="#ffffff" stroke-width="1.5"/><circle cx="226.2" cy="201.9" r="3.5" fill="#16a34a" stroke="#ffffff" stroke-width="1.5"/><circle cx="247.2" cy="199.8" r="3.5" fill="#16a34a" stroke="#ffffff" stroke-width="1.5"/><circle cx="268.3" cy="199.8" r="3.5" fill="#16a34a" stroke="#ffffff" stroke-width="1.5"/><circle cx="289.3" cy="199.8" r="3.5" fill="#16a34a" stroke="#ffffff" stroke-width="1.5"/><circle cx="310.3" cy="199.8" r="3.5" fill="#16a34a" stroke="#ffffff" stroke-width="1.5"/><circle cx="331.4" cy="199.8" r="3.5" fill="#16a34a" stroke="#ffffff" stroke-width="1.5"/><circle cx="352.4" cy="197.8" r="3.5" fill="#16a34a" stroke="#ffffff" stroke-width="1.5"/><circle cx="373.4" cy="191.5" r="3.5" fill="#16a34a" stroke="#ffffff" stroke-width="1.5"/><circle cx="394.4" cy="189.4" r="3.5" fill="#16a34a" stroke="#ffffff" stroke-width="1.5"/><circle cx="415.5" cy="185.3" r="3.5" fill="#16a34a" stroke="#ffffff" stroke-width="1.5"/><circle cx="436.5" cy="185.3" r="3.5" fill="#16a34a" stroke="#ffffff" stroke-width="1.5"/><circle cx="457.5" cy="185.3" r="3.5" fill="#16a34a" stroke="#ffffff" stroke-width="1.5"/><circle cx="478.5" cy="185.3" r="3.5" fill="#16a34a" stroke="#ffffff" stroke-width="1.5"/><circle cx="499.6" cy="185.3" r="3.5" fill="#16a34a" stroke="#ffffff" stroke-width="1.5"/><circle cx="520.6" cy="181.1" r="3.5" fill="#16a34a" stroke="#ffffff" stroke-width="1.5"/><circle cx="541.6" cy="179.0" r="3.5" fill="#16a34a" stroke="#ffffff" stroke-width="1.5"/><circle cx="562.6" cy="174.9" r="3.5" fill="#16a34a" stroke="#ffffff" stroke-width="1.5"/><circle cx="583.7" cy="170.7" r="3.5" fill="#16a34a" stroke="#ffffff" stroke-width="1.5"/><circle cx="604.7" cy="170.7" r="3.5" fill="#16a34a" stroke="#ffffff" stroke-width="1.5"/><circle cx="625.7" cy="164.5" r="3.5" fill="#16a34a" stroke="#ffffff" stroke-width="1.5"/><circle cx="646.8" cy="164.5" r="3.5" fill="#16a34a" stroke="#ffffff" stroke-width="1.5"/><circle cx="667.8" cy="152.0" r="3.5" fill="#16a34a" stroke="#ffffff" stroke-width="1.5"/><circle cx="688.8" cy="143.7" r="3.5" fill="#16a34a" stroke="#ffffff" stroke-width="1.5"/><circle cx="709.8" cy="137.4" r="3.5" fill="#16a34a" stroke="#ffffff" stroke-width="1.5"/><circle cx="730.9" cy="127.0" r="3.5" fill="#16a34a" stroke="#ffffff" stroke-width="1.5"/><circle cx="751.9" cy="125.0" r="3.5" fill="#16a34a" stroke="#ffffff" stroke-width="1.5"/><circle cx="772.9" cy="120.8" r="3.5" fill="#16a34a" stroke="#ffffff" stroke-width="1.5"/><circle cx="793.9" cy="118.7" r="3.5" fill="#16a34a" stroke="#ffffff" stroke-width="1.5"/><circle cx="815.0" cy="108.3" r="3.5" fill="#16a34a" stroke="#ffffff" stroke-width="1.5"/><circle cx="836.0" cy="104.2" r="5" fill="#166534" stroke="#ffffff" stroke-width="1.5"/><text x="836.0" y="92.2" text-anchor="middle" font-size="14" font-weight="bold" fill="#166534">73</text>
<text x="58.0" y="276" text-anchor="middle" font-size="12" fill="#6b7280">08-04</text><text x="163.1" y="276" text-anchor="middle" font-size="12" fill="#6b7280">08-15</text><text x="268.3" y="276" text-anchor="middle" font-size="12" fill="#6b7280">08-20</text><text x="373.4" y="276" text-anchor="middle" font-size="12" fill="#6b7280">08-25</text><text x="478.5" y="276" text-anchor="middle" font-size="12" fill="#6b7280">08-31</text><text x="583.7" y="276" text-anchor="middle" font-size="12" fill="#6b7280">09-05</text><text x="688.8" y="276" text-anchor="middle" font-size="12" fill="#6b7280">09-10</text><text x="793.9" y="276" text-anchor="middle" font-size="12" fill="#6b7280">09-15</text><text x="836.0" y="276" text-anchor="middle" font-size="12" fill="#6b7280">09-17</text>
<text x="58" y="28" font-size="17" font-weight="bold" fill="#111827">ClawHub Downloads Trend</text>
<text x="836" y="28" text-anchor="end" font-size="12" fill="#6b7280">@tqsy114514/baidu-search-plugin · updated 2026-09-16</text>
</svg>
