<svg xmlns="http://www.w3.org/2000/svg" width="860" height="300" viewBox="0 0 860 300" font-family="Segoe UI, Arial, sans-serif" role="img" aria-label="ClawHub downloads trend: 3, 6, 19, 20, 22, 23, 24, 26, 26, 27, 27, 27, 27, 27, 28, 31, 32, 34, 34, 34, 34, 34, 36, 37, 39, 41, 41, 44, 44, 50, 54, 57, 62, 63, 65, 66, 71, 73, 75, 78, 78, 82, 85, 85, 87, 88, 89, 93, 98, 104, 107, 112, 116, 124, 135">
<defs>
<linearGradient id="grad" x1="0" y1="0" x2="0" y2="1">
<stop offset="0%" stop-color="#16a34a" stop-opacity="0.30"/>
<stop offset="100%" stop-color="#16a34a" stop-opacity="0"/>
</linearGradient>
</defs>
<rect width="860" height="300" fill="#ffffff" rx="12"/>
<line x1="58" y1="256.0" x2="836" y2="256.0" stroke="#e5e7eb" stroke-width="1"/><text x="48" y="260.0" text-anchor="end" font-size="12" fill="#6b7280">0</text><line x1="58" y1="214.4" x2="836" y2="214.4" stroke="#e5e7eb" stroke-width="1"/><text x="48" y="218.4" text-anchor="end" font-size="12" fill="#6b7280">40</text><line x1="58" y1="172.8" x2="836" y2="172.8" stroke="#e5e7eb" stroke-width="1"/><text x="48" y="176.8" text-anchor="end" font-size="12" fill="#6b7280">80</text><line x1="58" y1="131.2" x2="836" y2="131.2" stroke="#e5e7eb" stroke-width="1"/><text x="48" y="135.2" text-anchor="end" font-size="12" fill="#6b7280">120</text><line x1="58" y1="89.6" x2="836" y2="89.6" stroke="#e5e7eb" stroke-width="1"/><text x="48" y="93.6" text-anchor="end" font-size="12" fill="#6b7280">160</text><line x1="58" y1="48.0" x2="836" y2="48.0" stroke="#e5e7eb" stroke-width="1"/><text x="48" y="52.0" text-anchor="end" font-size="12" fill="#6b7280">200</text>
<path d="M 58.0,252.9 72.4,249.8 86.8,236.2 101.2,235.2 115.6,233.1 130.0,232.1 144.4,231.0 158.9,229.0 173.3,229.0 187.7,227.9 202.1,227.9 216.5,227.9 230.9,227.9 245.3,227.9 259.7,226.9 274.1,223.8 288.5,222.7 302.9,220.6 317.3,220.6 331.7,220.6 346.1,220.6 360.6,220.6 375.0,218.6 389.4,217.5 403.8,215.4 418.2,213.4 432.6,213.4 447.0,210.2 461.4,210.2 475.8,204.0 490.2,199.8 504.6,196.7 519.0,191.5 533.4,190.5 547.9,188.4 562.3,187.4 576.7,182.2 591.1,180.1 605.5,178.0 619.9,174.9 634.3,174.9 648.7,170.7 663.1,167.6 677.5,167.6 691.9,165.5 706.3,164.5 720.7,163.4 735.1,159.3 749.6,154.1 764.0,147.8 778.4,144.7 792.8,139.5 807.2,135.4 821.6,127.0 836.0,115.6 L 836.0,256.0 L 58.0,256.0 Z" fill="url(#grad)"/>
<polyline points="58.0,252.9 72.4,249.8 86.8,236.2 101.2,235.2 115.6,233.1 130.0,232.1 144.4,231.0 158.9,229.0 173.3,229.0 187.7,227.9 202.1,227.9 216.5,227.9 230.9,227.9 245.3,227.9 259.7,226.9 274.1,223.8 288.5,222.7 302.9,220.6 317.3,220.6 331.7,220.6 346.1,220.6 360.6,220.6 375.0,218.6 389.4,217.5 403.8,215.4 418.2,213.4 432.6,213.4 447.0,210.2 461.4,210.2 475.8,204.0 490.2,199.8 504.6,196.7 519.0,191.5 533.4,190.5 547.9,188.4 562.3,187.4 576.7,182.2 591.1,180.1 605.5,178.0 619.9,174.9 634.3,174.9 648.7,170.7 663.1,167.6 677.5,167.6 691.9,165.5 706.3,164.5 720.7,163.4 735.1,159.3 749.6,154.1 764.0,147.8 778.4,144.7 792.8,139.5 807.2,135.4 821.6,127.0 836.0,115.6" fill="none" stroke="#16a34a" stroke-width="3" stroke-linecap="round" stroke-linejoin="round"/>
<circle cx="58.0" cy="252.9" r="3.5" fill="#16a34a" stroke="#ffffff" stroke-width="1.5"/><circle cx="72.4" cy="249.8" r="3.5" fill="#16a34a" stroke="#ffffff" stroke-width="1.5"/><circle cx="86.8" cy="236.2" r="3.5" fill="#16a34a" stroke="#ffffff" stroke-width="1.5"/><circle cx="101.2" cy="235.2" r="3.5" fill="#16a34a" stroke="#ffffff" stroke-width="1.5"/><circle cx="115.6" cy="233.1" r="3.5" fill="#16a34a" stroke="#ffffff" stroke-width="1.5"/><circle cx="130.0" cy="232.1" r="3.5" fill="#16a34a" stroke="#ffffff" stroke-width="1.5"/><circle cx="144.4" cy="231.0" r="3.5" fill="#16a34a" stroke="#ffffff" stroke-width="1.5"/><circle cx="158.9" cy="229.0" r="3.5" fill="#16a34a" stroke="#ffffff" stroke-width="1.5"/><circle cx="173.3" cy="229.0" r="3.5" fill="#16a34a" stroke="#ffffff" stroke-width="1.5"/><circle cx="187.7" cy="227.9" r="3.5" fill="#16a34a" stroke="#ffffff" stroke-width="1.5"/><circle cx="202.1" cy="227.9" r="3.5" fill="#16a34a" stroke="#ffffff" stroke-width="1.5"/><circle cx="216.5" cy="227.9" r="3.5" fill="#16a34a" stroke="#ffffff" stroke-width="1.5"/><circle cx="230.9" cy="227.9" r="3.5" fill="#16a34a" stroke="#ffffff" stroke-width="1.5"/><circle cx="245.3" cy="227.9" r="3.5" fill="#16a34a" stroke="#ffffff" stroke-width="1.5"/><circle cx="259.7" cy="226.9" r="3.5" fill="#16a34a" stroke="#ffffff" stroke-width="1.5"/><circle cx="274.1" cy="223.8" r="3.5" fill="#16a34a" stroke="#ffffff" stroke-width="1.5"/><circle cx="288.5" cy="222.7" r="3.5" fill="#16a34a" stroke="#ffffff" stroke-width="1.5"/><circle cx="302.9" cy="220.6" r="3.5" fill="#16a34a" stroke="#ffffff" stroke-width="1.5"/><circle cx="317.3" cy="220.6" r="3.5" fill="#16a34a" stroke="#ffffff" stroke-width="1.5"/><circle cx="331.7" cy="220.6" r="3.5" fill="#16a34a" stroke="#ffffff" stroke-width="1.5"/><circle cx="346.1" cy="220.6" r="3.5" fill="#16a34a" stroke="#ffffff" stroke-width="1.5"/><circle cx="360.6" cy="220.6" r="3.5" fill="#16a34a" stroke="#ffffff" stroke-width="1.5"/><circle cx="375.0" cy="218.6" r="3.5" fill="#16a34a" stroke="#ffffff" stroke-width="1.5"/><circle cx="389.4" cy="217.5" r="3.5" fill="#16a34a" stroke="#ffffff" stroke-width="1.5"/><circle cx="403.8" cy="215.4" r="3.5" fill="#16a34a" stroke="#ffffff" stroke-width="1.5"/><circle cx="418.2" cy="213.4" r="3.5" fill="#16a34a" stroke="#ffffff" stroke-width="1.5"/><circle cx="432.6" cy="213.4" r="3.5" fill="#16a34a" stroke="#ffffff" stroke-width="1.5"/><circle cx="447.0" cy="210.2" r="3.5" fill="#16a34a" stroke="#ffffff" stroke-width="1.5"/><circle cx="461.4" cy="210.2" r="3.5" fill="#16a34a" stroke="#ffffff" stroke-width="1.5"/><circle cx="475.8" cy="204.0" r="3.5" fill="#16a34a" stroke="#ffffff" stroke-width="1.5"/><circle cx="490.2" cy="199.8" r="3.5" fill="#16a34a" stroke="#ffffff" stroke-width="1.5"/><circle cx="504.6" cy="196.7" r="3.5" fill="#16a34a" stroke="#ffffff" stroke-width="1.5"/><circle cx="519.0" cy="191.5" r="3.5" fill="#16a34a" stroke="#ffffff" stroke-width="1.5"/><circle cx="533.4" cy="190.5" r="3.5" fill="#16a34a" stroke="#ffffff" stroke-width="1.5"/><circle cx="547.9" cy="188.4" r="3.5" fill="#16a34a" stroke="#ffffff" stroke-width="1.5"/><circle cx="562.3" cy="187.4" r="3.5" fill="#16a34a" stroke="#ffffff" stroke-width="1.5"/><circle cx="576.7" cy="182.2" r="3.5" fill="#16a34a" stroke="#ffffff" stroke-width="1.5"/><circle cx="591.1" cy="180.1" r="3.5" fill="#16a34a" stroke="#ffffff" stroke-width="1.5"/><circle cx="605.5" cy="178.0" r="3.5" fill="#16a34a" stroke="#ffffff" stroke-width="1.5"/><circle cx="619.9" cy="174.9" r="3.5" fill="#16a34a" stroke="#ffffff" stroke-width="1.5"/><circle cx="634.3" cy="174.9" r="3.5" fill="#16a34a" stroke="#ffffff" stroke-width="1.5"/><circle cx="648.7" cy="170.7" r="3.5" fill="#16a34a" stroke="#ffffff" stroke-width="1.5"/><circle cx="663.1" cy="167.6" r="3.5" fill="#16a34a" stroke="#ffffff" stroke-width="1.5"/><circle cx="677.5" cy="167.6" r="3.5" fill="#16a34a" stroke="#ffffff" stroke-width="1.5"/><circle cx="691.9" cy="165.5" r="3.5" fill="#16a34a" stroke="#ffffff" stroke-width="1.5"/><circle cx="706.3" cy="164.5" r="3.5" fill="#16a34a" stroke="#ffffff" stroke-width="1.5"/><circle cx="720.7" cy="163.4" r="3.5" fill="#16a34a" stroke="#ffffff" stroke-width="1.5"/><circle cx="735.1" cy="159.3" r="3.5" fill="#16a34a" stroke="#ffffff" stroke-width="1.5"/><circle cx="749.6" cy="154.1" r="3.5" fill="#16a34a" stroke="#ffffff" stroke-width="1.5"/><circle cx="764.0" cy="147.8" r="3.5" fill="#16a34a" stroke="#ffffff" stroke-width="1.5"/><circle cx="778.4" cy="144.7" r="3.5" fill="#16a34a" stroke="#ffffff" stroke-width="1.5"/><circle cx="792.8" cy="139.5" r="3.5" fill="#16a34a" stroke="#ffffff" stroke-width="1.5"/><circle cx="807.2" cy="135.4" r="3.5" fill="#16a34a" stroke="#ffffff" stroke-width="1.5"/><circle cx="821.6" cy="127.0" r="3.5" fill="#16a34a" stroke="#ffffff" stroke-width="1.5"/><circle cx="836.0" cy="115.6" r="5" fill="#166534" stroke="#ffffff" stroke-width="1.5"/><text x="836.0" y="103.6" text-anchor="middle" font-size="14" font-weight="bold" fill="#166534">135</text>
<text x="58.0" y="276" text-anchor="middle" font-size="12" fill="#6b7280">08-04</text><text x="158.9" y="276" text-anchor="middle" font-size="12" fill="#6b7280">08-17</text><text x="259.7" y="276" text-anchor="middle" font-size="12" fill="#6b7280">08-24</text><text x="360.6" y="276" text-anchor="middle" font-size="12" fill="#6b7280">09-01</text><text x="461.4" y="276" text-anchor="middle" font-size="12" fill="#6b7280">09-08</text><text x="562.3" y="276" text-anchor="middle" font-size="12" fill="#6b7280">09-15</text><text x="663.1" y="276" text-anchor="middle" font-size="12" fill="#6b7280">09-22</text><text x="764.0" y="276" text-anchor="middle" font-size="12" fill="#6b7280">09-29</text><text x="836.0" y="276" text-anchor="middle" font-size="12" fill="#6b7280">10-04</text>
<text x="58" y="28" font-size="17" font-weight="bold" fill="#111827">ClawHub Downloads Trend</text>
<text x="836" y="28" text-anchor="end" font-size="12" fill="#6b7280">@tqsy114514/baidu-search-plugin · updated 2026-10-03</text>
</svg>
