<svg xmlns="http://www.w3.org/2000/svg" width="860" height="300" viewBox="0 0 860 300" font-family="Segoe UI, Arial, sans-serif" role="img" aria-label="ClawHub downloads trend: 3, 6, 19, 20, 22, 23, 24, 26, 26, 27, 27, 27, 27, 27, 28, 31, 32, 34, 34, 34, 34, 34, 36, 37, 39, 41, 41, 44, 44, 50, 54">
<defs>
<linearGradient id="grad" x1="0" y1="0" x2="0" y2="1">
<stop offset="0%" stop-color="#16a34a" stop-opacity="0.30"/>
<stop offset="100%" stop-color="#16a34a" stop-opacity="0"/>
</linearGradient>
</defs>
<rect width="860" height="300" fill="#ffffff" rx="12"/>
<line x1="58" y1="256.0" x2="836" y2="256.0" stroke="#e5e7eb" stroke-width="1"/><text x="48" y="260.0" text-anchor="end" font-size="12" fill="#6b7280">0</text><line x1="58" y1="214.4" x2="836" y2="214.4" stroke="#e5e7eb" stroke-width="1"/><text x="48" y="218.4" text-anchor="end" font-size="12" fill="#6b7280">20</text><line x1="58" y1="172.8" x2="836" y2="172.8" stroke="#e5e7eb" stroke-width="1"/><text x="48" y="176.8" text-anchor="end" font-size="12" fill="#6b7280">40</text><line x1="58" y1="131.2" x2="836" y2="131.2" stroke="#e5e7eb" stroke-width="1"/><text x="48" y="135.2" text-anchor="end" font-size="12" fill="#6b7280">60</text><line x1="58" y1="89.6" x2="836" y2="89.6" stroke="#e5e7eb" stroke-width="1"/><text x="48" y="93.6" text-anchor="end" font-size="12" fill="#6b7280">80</text><line x1="58" y1="48.0" x2="836" y2="48.0" stroke="#e5e7eb" stroke-width="1"/><text x="48" y="52.0" text-anchor="end" font-size="12" fill="#6b7280">100</text>
<path d="M 58.0,249.8 83.9,243.5 109.9,216.5 135.8,214.4 161.7,210.2 187.7,208.2 213.6,206.1 239.5,201.9 265.5,201.9 291.4,199.8 317.3,199.8 343.3,199.8 369.2,199.8 395.1,199.8 421.1,197.8 447.0,191.5 472.9,189.4 498.9,185.3 524.8,185.3 550.7,185.3 576.7,185.3 602.6,185.3 628.5,181.1 654.5,179.0 680.4,174.9 706.3,170.7 732.3,170.7 758.2,164.5 784.1,164.5 810.1,152.0 836.0,143.7 L 836.0,256.0 L 58.0,256.0 Z" fill="url(#grad)"/>
<polyline points="58.0,249.8 83.9,243.5 109.9,216.5 135.8,214.4 161.7,210.2 187.7,208.2 213.6,206.1 239.5,201.9 265.5,201.9 291.4,199.8 317.3,199.8 343.3,199.8 369.2,199.8 395.1,199.8 421.1,197.8 447.0,191.5 472.9,189.4 498.9,185.3 524.8,185.3 550.7,185.3 576.7,185.3 602.6,185.3 628.5,181.1 654.5,179.0 680.4,174.9 706.3,170.7 732.3,170.7 758.2,164.5 784.1,164.5 810.1,152.0 836.0,143.7" fill="none" stroke="#16a34a" stroke-width="3" stroke-linecap="round" stroke-linejoin="round"/>
<circle cx="58.0" cy="249.8" r="3.5" fill="#16a34a" stroke="#ffffff" stroke-width="1.5"/><circle cx="83.9" cy="243.5" r="3.5" fill="#16a34a" stroke="#ffffff" stroke-width="1.5"/><circle cx="109.9" cy="216.5" r="3.5" fill="#16a34a" stroke="#ffffff" stroke-width="1.5"/><circle cx="135.8" cy="214.4" r="3.5" fill="#16a34a" stroke="#ffffff" stroke-width="1.5"/><circle cx="161.7" cy="210.2" r="3.5" fill="#16a34a" stroke="#ffffff" stroke-width="1.5"/><circle cx="187.7" cy="208.2" r="3.5" fill="#16a34a" stroke="#ffffff" stroke-width="1.5"/><circle cx="213.6" cy="206.1" r="3.5" fill="#16a34a" stroke="#ffffff" stroke-width="1.5"/><circle cx="239.5" cy="201.9" r="3.5" fill="#16a34a" stroke="#ffffff" stroke-width="1.5"/><circle cx="265.5" cy="201.9" r="3.5" fill="#16a34a" stroke="#ffffff" stroke-width="1.5"/><circle cx="291.4" cy="199.8" r="3.5" fill="#16a34a" stroke="#ffffff" stroke-width="1.5"/><circle cx="317.3" cy="199.8" r="3.5" fill="#16a34a" stroke="#ffffff" stroke-width="1.5"/><circle cx="343.3" cy="199.8" r="3.5" fill="#16a34a" stroke="#ffffff" stroke-width="1.5"/><circle cx="369.2" cy="199.8" r="3.5" fill="#16a34a" stroke="#ffffff" stroke-width="1.5"/><circle cx="395.1" cy="199.8" r="3.5" fill="#16a34a" stroke="#ffffff" stroke-width="1.5"/><circle cx="421.1" cy="197.8" r="3.5" fill="#16a34a" stroke="#ffffff" stroke-width="1.5"/><circle cx="447.0" cy="191.5" r="3.5" fill="#16a34a" stroke="#ffffff" stroke-width="1.5"/><circle cx="472.9" cy="189.4" r="3.5" fill="#16a34a" stroke="#ffffff" stroke-width="1.5"/><circle cx="498.9" cy="185.3" r="3.5" fill="#16a34a" stroke="#ffffff" stroke-width="1.5"/><circle cx="524.8" cy="185.3" r="3.5" fill="#16a34a" stroke="#ffffff" stroke-width="1.5"/><circle cx="550.7" cy="185.3" r="3.5" fill="#16a34a" stroke="#ffffff" stroke-width="1.5"/><circle cx="576.7" cy="185.3" r="3.5" fill="#16a34a" stroke="#ffffff" stroke-width="1.5"/><circle cx="602.6" cy="185.3" r="3.5" fill="#16a34a" stroke="#ffffff" stroke-width="1.5"/><circle cx="628.5" cy="181.1" r="3.5" fill="#16a34a" stroke="#ffffff" stroke-width="1.5"/><circle cx="654.5" cy="179.0" r="3.5" fill="#16a34a" stroke="#ffffff" stroke-width="1.5"/><circle cx="680.4" cy="174.9" r="3.5" fill="#16a34a" stroke="#ffffff" stroke-width="1.5"/><circle cx="706.3" cy="170.7" r="3.5" fill="#16a34a" stroke="#ffffff" stroke-width="1.5"/><circle cx="732.3" cy="170.7" r="3.5" fill="#16a34a" stroke="#ffffff" stroke-width="1.5"/><circle cx="758.2" cy="164.5" r="3.5" fill="#16a34a" stroke="#ffffff" stroke-width="1.5"/><circle cx="784.1" cy="164.5" r="3.5" fill="#16a34a" stroke="#ffffff" stroke-width="1.5"/><circle cx="810.1" cy="152.0" r="3.5" fill="#16a34a" stroke="#ffffff" stroke-width="1.5"/><circle cx="836.0" cy="143.7" r="5" fill="#166534" stroke="#ffffff" stroke-width="1.5"/><text x="836.0" y="131.7" text-anchor="middle" font-size="14" font-weight="bold" fill="#166534">54</text>
<text x="58.0" y="276" text-anchor="middle" font-size="12" fill="#6b7280">08-04</text><text x="161.7" y="276" text-anchor="middle" font-size="12" fill="#6b7280">08-14</text><text x="265.5" y="276" text-anchor="middle" font-size="12" fill="#6b7280">08-18</text><text x="369.2" y="276" text-anchor="middle" font-size="12" fill="#6b7280">08-22</text><text x="472.9" y="276" text-anchor="middle" font-size="12" fill="#6b7280">08-27</text><text x="576.7" y="276" text-anchor="middle" font-size="12" fill="#6b7280">08-31</text><text x="680.4" y="276" text-anchor="middle" font-size="12" fill="#6b7280">09-04</text><text x="784.1" y="276" text-anchor="middle" font-size="12" fill="#6b7280">09-08</text><text x="836.0" y="276" text-anchor="middle" font-size="12" fill="#6b7280">09-10</text>
<text x="58" y="28" font-size="17" font-weight="bold" fill="#111827">ClawHub Downloads Trend</text>
<text x="836" y="28" text-anchor="end" font-size="12" fill="#6b7280">@tqsy114514/baidu-search-plugin · updated 2026-09-09</text>
</svg>
