<svg xmlns="http://www.w3.org/2000/svg" width="860" height="300" viewBox="0 0 860 300" font-family="Segoe UI, Arial, sans-serif" role="img" aria-label="ClawHub downloads trend: 3, 6, 19, 20, 22, 23, 24, 26, 26, 27, 27, 27, 27, 27">
<defs>
<linearGradient id="grad" x1="0" y1="0" x2="0" y2="1">
<stop offset="0%" stop-color="#16a34a" stop-opacity="0.30"/>
<stop offset="100%" stop-color="#16a34a" stop-opacity="0"/>
</linearGradient>
</defs>
<rect width="860" height="300" fill="#ffffff" rx="12"/>
<line x1="58" y1="256.0" x2="836" y2="256.0" stroke="#e5e7eb" stroke-width="1"/><text x="48" y="260.0" text-anchor="end" font-size="12" fill="#6b7280">0</text><line x1="58" y1="214.4" x2="836" y2="214.4" stroke="#e5e7eb" stroke-width="1"/><text x="48" y="218.4" text-anchor="end" font-size="12" fill="#6b7280">10</text><line x1="58" y1="172.8" x2="836" y2="172.8" stroke="#e5e7eb" stroke-width="1"/><text x="48" y="176.8" text-anchor="end" font-size="12" fill="#6b7280">20</text><line x1="58" y1="131.2" x2="836" y2="131.2" stroke="#e5e7eb" stroke-width="1"/><text x="48" y="135.2" text-anchor="end" font-size="12" fill="#6b7280">30</text><line x1="58" y1="89.6" x2="836" y2="89.6" stroke="#e5e7eb" stroke-width="1"/><text x="48" y="93.6" text-anchor="end" font-size="12" fill="#6b7280">40</text><line x1="58" y1="48.0" x2="836" y2="48.0" stroke="#e5e7eb" stroke-width="1"/><text x="48" y="52.0" text-anchor="end" font-size="12" fill="#6b7280">50</text>
<path d="M 58.0,243.5 117.8,231.0 177.7,177.0 237.5,172.8 297.4,164.5 357.2,160.3 417.1,156.2 476.9,147.8 536.8,147.8 596.6,143.7 656.5,143.7 716.3,143.7 776.2,143.7 836.0,143.7 L 836.0,256.0 L 58.0,256.0 Z" fill="url(#grad)"/>
<polyline points="58.0,243.5 117.8,231.0 177.7,177.0 237.5,172.8 297.4,164.5 357.2,160.3 417.1,156.2 476.9,147.8 536.8,147.8 596.6,143.7 656.5,143.7 716.3,143.7 776.2,143.7 836.0,143.7" fill="none" stroke="#16a34a" stroke-width="3" stroke-linecap="round" stroke-linejoin="round"/>
<circle cx="58.0" cy="243.5" r="3.5" fill="#16a34a" stroke="#ffffff" stroke-width="1.5"/><circle cx="117.8" cy="231.0" r="3.5" fill="#16a34a" stroke="#ffffff" stroke-width="1.5"/><circle cx="177.7" cy="177.0" r="3.5" fill="#16a34a" stroke="#ffffff" stroke-width="1.5"/><circle cx="237.5" cy="172.8" r="3.5" fill="#16a34a" stroke="#ffffff" stroke-width="1.5"/><circle cx="297.4" cy="164.5" r="3.5" fill="#16a34a" stroke="#ffffff" stroke-width="1.5"/><circle cx="357.2" cy="160.3" r="3.5" fill="#16a34a" stroke="#ffffff" stroke-width="1.5"/><circle cx="417.1" cy="156.2" r="3.5" fill="#16a34a" stroke="#ffffff" stroke-width="1.5"/><circle cx="476.9" cy="147.8" r="3.5" fill="#16a34a" stroke="#ffffff" stroke-width="1.5"/><circle cx="536.8" cy="147.8" r="3.5" fill="#16a34a" stroke="#ffffff" stroke-width="1.5"/><circle cx="596.6" cy="143.7" r="3.5" fill="#16a34a" stroke="#ffffff" stroke-width="1.5"/><circle cx="656.5" cy="143.7" r="3.5" fill="#16a34a" stroke="#ffffff" stroke-width="1.5"/><circle cx="716.3" cy="143.7" r="3.5" fill="#16a34a" stroke="#ffffff" stroke-width="1.5"/><circle cx="776.2" cy="143.7" r="3.5" fill="#16a34a" stroke="#ffffff" stroke-width="1.5"/><circle cx="836.0" cy="143.7" r="5" fill="#166534" stroke="#ffffff" stroke-width="1.5"/><text x="836.0" y="131.7" text-anchor="middle" font-size="14" font-weight="bold" fill="#166534">27</text>
<text x="58.0" y="276" text-anchor="middle" font-size="12" fill="#6b7280">08-04</text><text x="177.7" y="276" text-anchor="middle" font-size="12" fill="#6b7280">08-11</text><text x="297.4" y="276" text-anchor="middle" font-size="12" fill="#6b7280">08-14</text><text x="417.1" y="276" text-anchor="middle" font-size="12" fill="#6b7280">08-16</text><text x="536.8" y="276" text-anchor="middle" font-size="12" fill="#6b7280">08-18</text><text x="656.5" y="276" text-anchor="middle" font-size="12" fill="#6b7280">08-20</text><text x="776.2" y="276" text-anchor="middle" font-size="12" fill="#6b7280">08-22</text><text x="836.0" y="276" text-anchor="middle" font-size="12" fill="#6b7280">08-23</text>
<text x="58" y="28" font-size="17" font-weight="bold" fill="#111827">ClawHub Downloads Trend</text>
<text x="836" y="28" text-anchor="end" font-size="12" fill="#6b7280">@tqsy114514/baidu-search-plugin · updated 2026-08-23</text>
</svg>
