<svg xmlns="http://www.w3.org/2000/svg" width="860" height="300" viewBox="0 0 860 300" font-family="Segoe UI, Arial, sans-serif" role="img" aria-label="ClawHub downloads trend: 3, 6, 19, 20, 22, 23, 24, 26, 26, 27, 27, 27, 27, 27, 28, 31, 32, 34, 34, 34, 34, 34, 36, 37, 39, 41, 41, 44, 44, 50, 54, 57, 62, 63, 65">
<defs>
<linearGradient id="grad" x1="0" y1="0" x2="0" y2="1">
<stop offset="0%" stop-color="#16a34a" stop-opacity="0.30"/>
<stop offset="100%" stop-color="#16a34a" stop-opacity="0"/>
</linearGradient>
</defs>
<rect width="860" height="300" fill="#ffffff" rx="12"/>
<line x1="58" y1="256.0" x2="836" y2="256.0" stroke="#e5e7eb" stroke-width="1"/><text x="48" y="260.0" text-anchor="end" font-size="12" fill="#6b7280">0</text><line x1="58" y1="214.4" x2="836" y2="214.4" stroke="#e5e7eb" stroke-width="1"/><text x="48" y="218.4" text-anchor="end" font-size="12" fill="#6b7280">20</text><line x1="58" y1="172.8" x2="836" y2="172.8" stroke="#e5e7eb" stroke-width="1"/><text x="48" y="176.8" text-anchor="end" font-size="12" fill="#6b7280">40</text><line x1="58" y1="131.2" x2="836" y2="131.2" stroke="#e5e7eb" stroke-width="1"/><text x="48" y="135.2" text-anchor="end" font-size="12" fill="#6b7280">60</text><line x1="58" y1="89.6" x2="836" y2="89.6" stroke="#e5e7eb" stroke-width="1"/><text x="48" y="93.6" text-anchor="end" font-size="12" fill="#6b7280">80</text><line x1="58" y1="48.0" x2="836" y2="48.0" stroke="#e5e7eb" stroke-width="1"/><text x="48" y="52.0" text-anchor="end" font-size="12" fill="#6b7280">100</text>
<path d="M 58.0,249.8 80.9,243.5 103.8,216.5 126.6,214.4 149.5,210.2 172.4,208.2 195.3,206.1 218.2,201.9 241.1,201.9 263.9,199.8 286.8,199.8 309.7,199.8 332.6,199.8 355.5,199.8 378.4,197.8 401.2,191.5 424.1,189.4 447.0,185.3 469.9,185.3 492.8,185.3 515.6,185.3 538.5,185.3 561.4,181.1 584.3,179.0 607.2,174.9 630.1,170.7 652.9,170.7 675.8,164.5 698.7,164.5 721.6,152.0 744.5,143.7 767.4,137.4 790.2,127.0 813.1,125.0 836.0,120.8 L 836.0,256.0 L 58.0,256.0 Z" fill="url(#grad)"/>
<polyline points="58.0,249.8 80.9,243.5 103.8,216.5 126.6,214.4 149.5,210.2 172.4,208.2 195.3,206.1 218.2,201.9 241.1,201.9 263.9,199.8 286.8,199.8 309.7,199.8 332.6,199.8 355.5,199.8 378.4,197.8 401.2,191.5 424.1,189.4 447.0,185.3 469.9,185.3 492.8,185.3 515.6,185.3 538.5,185.3 561.4,181.1 584.3,179.0 607.2,174.9 630.1,170.7 652.9,170.7 675.8,164.5 698.7,164.5 721.6,152.0 744.5,143.7 767.4,137.4 790.2,127.0 813.1,125.0 836.0,120.8" fill="none" stroke="#16a34a" stroke-width="3" stroke-linecap="round" stroke-linejoin="round"/>
<circle cx="58.0" cy="249.8" r="3.5" fill="#16a34a" stroke="#ffffff" stroke-width="1.5"/><circle cx="80.9" cy="243.5" r="3.5" fill="#16a34a" stroke="#ffffff" stroke-width="1.5"/><circle cx="103.8" cy="216.5" r="3.5" fill="#16a34a" stroke="#ffffff" stroke-width="1.5"/><circle cx="126.6" cy="214.4" r="3.5" fill="#16a34a" stroke="#ffffff" stroke-width="1.5"/><circle cx="149.5" cy="210.2" r="3.5" fill="#16a34a" stroke="#ffffff" stroke-width="1.5"/><circle cx="172.4" cy="208.2" r="3.5" fill="#16a34a" stroke="#ffffff" stroke-width="1.5"/><circle cx="195.3" cy="206.1" r="3.5" fill="#16a34a" stroke="#ffffff" stroke-width="1.5"/><circle cx="218.2" cy="201.9" r="3.5" fill="#16a34a" stroke="#ffffff" stroke-width="1.5"/><circle cx="241.1" cy="201.9" r="3.5" fill="#16a34a" stroke="#ffffff" stroke-width="1.5"/><circle cx="263.9" cy="199.8" r="3.5" fill="#16a34a" stroke="#ffffff" stroke-width="1.5"/><circle cx="286.8" cy="199.8" r="3.5" fill="#16a34a" stroke="#ffffff" stroke-width="1.5"/><circle cx="309.7" cy="199.8" r="3.5" fill="#16a34a" stroke="#ffffff" stroke-width="1.5"/><circle cx="332.6" cy="199.8" r="3.5" fill="#16a34a" stroke="#ffffff" stroke-width="1.5"/><circle cx="355.5" cy="199.8" r="3.5" fill="#16a34a" stroke="#ffffff" stroke-width="1.5"/><circle cx="378.4" cy="197.8" r="3.5" fill="#16a34a" stroke="#ffffff" stroke-width="1.5"/><circle cx="401.2" cy="191.5" r="3.5" fill="#16a34a" stroke="#ffffff" stroke-width="1.5"/><circle cx="424.1" cy="189.4" r="3.5" fill="#16a34a" stroke="#ffffff" stroke-width="1.5"/><circle cx="447.0" cy="185.3" r="3.5" fill="#16a34a" stroke="#ffffff" stroke-width="1.5"/><circle cx="469.9" cy="185.3" r="3.5" fill="#16a34a" stroke="#ffffff" stroke-width="1.5"/><circle cx="492.8" cy="185.3" r="3.5" fill="#16a34a" stroke="#ffffff" stroke-width="1.5"/><circle cx="515.6" cy="185.3" r="3.5" fill="#16a34a" stroke="#ffffff" stroke-width="1.5"/><circle cx="538.5" cy="185.3" r="3.5" fill="#16a34a" stroke="#ffffff" stroke-width="1.5"/><circle cx="561.4" cy="181.1" r="3.5" fill="#16a34a" stroke="#ffffff" stroke-width="1.5"/><circle cx="584.3" cy="179.0" r="3.5" fill="#16a34a" stroke="#ffffff" stroke-width="1.5"/><circle cx="607.2" cy="174.9" r="3.5" fill="#16a34a" stroke="#ffffff" stroke-width="1.5"/><circle cx="630.1" cy="170.7" r="3.5" fill="#16a34a" stroke="#ffffff" stroke-width="1.5"/><circle cx="652.9" cy="170.7" r="3.5" fill="#16a34a" stroke="#ffffff" stroke-width="1.5"/><circle cx="675.8" cy="164.5" r="3.5" fill="#16a34a" stroke="#ffffff" stroke-width="1.5"/><circle cx="698.7" cy="164.5" r="3.5" fill="#16a34a" stroke="#ffffff" stroke-width="1.5"/><circle cx="721.6" cy="152.0" r="3.5" fill="#16a34a" stroke="#ffffff" stroke-width="1.5"/><circle cx="744.5" cy="143.7" r="3.5" fill="#16a34a" stroke="#ffffff" stroke-width="1.5"/><circle cx="767.4" cy="137.4" r="3.5" fill="#16a34a" stroke="#ffffff" stroke-width="1.5"/><circle cx="790.2" cy="127.0" r="3.5" fill="#16a34a" stroke="#ffffff" stroke-width="1.5"/><circle cx="813.1" cy="125.0" r="3.5" fill="#16a34a" stroke="#ffffff" stroke-width="1.5"/><circle cx="836.0" cy="120.8" r="5" fill="#166534" stroke="#ffffff" stroke-width="1.5"/><text x="836.0" y="108.8" text-anchor="middle" font-size="14" font-weight="bold" fill="#166534">65</text>
<text x="58.0" y="276" text-anchor="middle" font-size="12" fill="#6b7280">08-04</text><text x="172.4" y="276" text-anchor="middle" font-size="12" fill="#6b7280">08-15</text><text x="286.8" y="276" text-anchor="middle" font-size="12" fill="#6b7280">08-20</text><text x="401.2" y="276" text-anchor="middle" font-size="12" fill="#6b7280">08-25</text><text x="515.6" y="276" text-anchor="middle" font-size="12" fill="#6b7280">08-31</text><text x="630.1" y="276" text-anchor="middle" font-size="12" fill="#6b7280">09-05</text><text x="744.5" y="276" text-anchor="middle" font-size="12" fill="#6b7280">09-10</text><text x="836.0" y="276" text-anchor="middle" font-size="12" fill="#6b7280">09-14</text>
<text x="58" y="28" font-size="17" font-weight="bold" fill="#111827">ClawHub Downloads Trend</text>
<text x="836" y="28" text-anchor="end" font-size="12" fill="#6b7280">@tqsy114514/baidu-search-plugin · updated 2026-09-13</text>
</svg>
